<svg width="32" height="35" viewBox="0 0 32 35" fill="none" xmlns="http://www.w3.org/2000/svg">
<path d="M22.9014 10.6439H2.37379L8.14045 4.33665C8.40477 4.0323 8.39785 3.55297 8.12656 3.26388C7.85527 2.98235 7.43093 2.98235 7.15964 3.26388L0.203467 10.8722C-0.0678224 11.1689 -0.0678224 11.6482 0.203467 11.945L7.15964 19.5533C7.43791 19.8424 7.87614 19.8348 8.14045 19.5381C8.39785 19.2414 8.39785 18.7772 8.14045 18.4805L2.37379 12.1656H22.9014C27.1515 12.1656 30.6088 16.2589 30.6088 21.2955C30.6088 26.3322 27.1516 30.4255 22.9014 30.4255H16.7173C16.3695 30.4255 16.0565 30.6994 16.0078 31.0722C15.9452 31.5439 16.2791 31.9472 16.6965 31.9472H22.9014C27.9168 31.9472 32 27.1691 32 21.2956C32 15.422 27.9168 10.6439 22.9014 10.6439Z" fill="#293D9B"/>
</svg>
