<?xml version="1.0" encoding="iso-8859-1"?>
<!-- Generator: Adobe Illustrator 19.0.0, SVG Export Plug-In . SVG Version: 6.00 Build 0)  -->
<svg version="1.1" id="Layer_1" xmlns="http://www.w3.org/2000/svg" xmlns:xlink="http://www.w3.org/1999/xlink" x="0px" y="0px"
	 viewBox="0 0 512 512" style="enable-background:new 0 0 512 512;" xml:space="preserve">
<g>
	<g>
		<path fill="#293D9B" d="M170.489,307.841h-9.086v-86.046c0-4.427-3.589-8.017-8.017-8.017s-8.017,3.589-8.017,8.017v86.046h-42.235l15.383-84.612
			c0.792-4.356-2.097-8.529-6.453-9.322c-4.355-0.79-8.53,2.097-9.322,6.454l-17.102,94.063c-0.425,2.339,0.21,4.746,1.733,6.57
			c1.523,1.825,3.777,2.88,6.155,2.88h51.841v17.637c0,4.427,3.589,8.017,8.017,8.017s8.017-3.589,8.017-8.017v-17.637h9.086
			c4.427,0,8.017-3.589,8.017-8.017S174.916,307.841,170.489,307.841z"/>
	</g>
</g>
<g>
	<g>
		<path fill="#293D9B" d="M418.472,307.841h-9.086v-86.046c0-4.427-3.589-8.017-8.017-8.017c-4.427,0-8.017,3.589-8.017,8.017v86.046h-42.235
			l15.384-84.612c0.792-4.356-2.097-8.529-6.453-9.322c-4.355-0.79-8.53,2.097-9.322,6.454l-17.102,94.063
			c-0.425,2.339,0.209,4.746,1.733,6.57c1.523,1.825,3.777,2.88,6.155,2.88h51.841v17.637c0,4.427,3.589,8.017,8.017,8.017
			c4.427,0,8.017-3.589,8.017-8.017v-17.637h9.086c4.427,0,8.017-3.589,8.017-8.017S422.899,307.841,418.472,307.841z"/>
	</g>
</g>
<g>
	<g>
		<path fill="#293D9B" d="M256,213.779c-32.711,0-59.324,26.612-59.324,59.324v68.409c0,2.778,1.439,5.358,3.802,6.82s5.315,1.594,7.8,0.351
			l13.517-6.759l13.517,6.759c2.256,1.129,4.914,1.129,7.17,0L256,341.923l13.517,6.759c2.256,1.129,4.914,1.129,7.17,0
			l13.517-6.759l13.517,6.759c1.132,0.565,2.36,0.847,3.585,0.847c1.467,0,2.928-0.402,4.215-1.197
			c2.363-1.46,3.802-4.042,3.802-6.82v-68.409C315.324,240.391,288.711,213.779,256,213.779z M299.29,328.54l-5.501-2.75
			c-2.256-1.129-4.914-1.129-7.17,0l-13.517,6.759l-13.517-6.759c-1.129-0.564-2.357-0.847-3.585-0.847s-2.456,0.282-3.585,0.847
			l-13.517,6.759l-13.517-6.759c-2.256-1.129-4.914-1.129-7.17,0l-5.5,2.75v-55.438c0-23.871,19.42-43.29,43.29-43.29
			s43.29,19.42,43.29,43.29V328.54z"/>
	</g>
</g>
<g>
	<g>
		<path fill="#293D9B" d="M238.898,256.534c-4.427,0-8.017,3.589-8.017,8.017v8.551c0,4.427,3.589,8.017,8.017,8.017s8.017-3.589,8.017-8.017
			v-8.551C246.914,260.124,243.325,256.534,238.898,256.534z"/>
	</g>
</g>
<g>
	<g>
		<path fill="#293D9B" d="M273.102,256.534c-4.427,0-8.017,3.589-8.017,8.017v8.551c0,4.427,3.589,8.017,8.017,8.017s8.017-3.589,8.017-8.017
			v-8.551C281.119,260.124,277.53,256.534,273.102,256.534z"/>
	</g>
</g>
<g>
	<g>
		<path fill="#293D9B" d="M478.33,51.307H33.67C15.105,51.307,0,66.411,0,84.977v342.046c0,18.566,15.105,33.67,33.67,33.67h444.66
			c18.566,0,33.67-15.105,33.67-33.67V84.977C512,66.411,496.895,51.307,478.33,51.307z M495.967,427.023
			c0,9.725-7.912,17.637-17.637,17.637H33.67c-9.725,0-17.637-7.912-17.637-17.637V135.749h479.933V427.023z M495.967,119.716
			H16.033V84.977c0-9.725,7.912-17.637,17.637-17.637h444.66c9.725,0,17.637,7.912,17.637,17.637V119.716z"/>
	</g>
</g>
<g>
	<g>
		<path fill="#293D9B" d="M469.779,85.511H127.733c-4.427,0-8.017,3.589-8.017,8.017s3.589,8.017,8.017,8.017h342.046
			c4.427,0,8.017-3.589,8.017-8.017S474.206,85.511,469.779,85.511z"/>
	</g>
</g>
<g>
	<g>
		<circle cx="42.221" cy="93.528" r="8.017" fill="#293D9B" />
	</g>
</g>
<g>
	<g>
		<circle cx="67.875" cy="93.528" r="8.017" fill="#293D9B" />
	</g>
</g>
<g>
	<g>
		<circle cx="93.528" cy="93.528" r="8.017" fill="#293D9B" />
	</g>
</g>
<g>
</g>
<g>
</g>
<g>
</g>
<g>
</g>
<g>
</g>
<g>
</g>
<g>
</g>
<g>
</g>
<g>
</g>
<g>
</g>
<g>
</g>
<g>
</g>
<g>
</g>
<g>
</g>
<g>
</g>
</svg>
